<?xml version="1.0" encoding="utf-8"?>
<svg width="800px" height="800px" viewBox="0 0 24 24" fill="none" xmlns="http://www.w3.org/2000/svg">
<path d="M19.3914 5.63135C22.1662 8.40614 22.1662 12.9939 19.3914 15.7687C19.0524 16.1077 18.4906 16.1077 18.1516 15.7687C17.8126 15.4297 17.8126 14.8679 18.1516 14.5289C20.3321 12.3484 20.3321 9.05164 18.1516 6.87114C17.8126 6.53214 17.8126 5.97035 18.1516 5.63135C18.4906 5.29235 19.0524 5.29235 19.3914 5.63135Z" fill="#e0e0e0"/>
<path d="M15.9383 8.08731C17.1787 9.32772 17.1787 11.3391 15.9383 12.5795C15.5993 12.9185 15.0375 12.9185 14.6985 12.5795C14.3595 12.2405 14.3595 11.6787 14.6985 11.3397C15.3447 10.6935 15.3447 9.97332 14.6985 9.32712C14.3595 8.98812 14.3595 8.42631 14.6985 8.08731C15.0375 7.74831 15.5993 7.74831 15.9383 8.08731Z" fill="#e0e0e0"/>
<path fill-rule="evenodd" clip-rule="evenodd" d="M4.49988 12C4.49988 9.84302 4.49988 8.76452 5.1096 8.1548C5.71933 7.54508 6.79783 7.54508 8.95483 7.54508H9.49988C9.77595 7.54508 10.0373 7.4533 10.2348 7.28863L12.9601 5.07752C13.4815 4.65048 14.2498 5.02205 14.2498 5.67861V18.3214C14.2498 18.978 13.4815 19.3495 12.9601 18.9225L10.2348 16.7114C10.0373 16.5467 9.77595 16.4549 9.49988 16.4549H8.95483C6.79783 16.4549 5.71933 16.4549 5.1096 15.8452C4.49988 15.2355 4.49988 14.157 4.49988 12Z" fill="#e0e0e0"/>
</svg> 
