<?xml version="1.0" encoding="utf-8"?>
<svg width="800px" height="800px" viewBox="0 0 24 24" fill="none" xmlns="http://www.w3.org/2000/svg">
<path d="M18.7207 9.06953L16.6563 11.1339L14.592 9.06953C14.2529 8.73053 13.6911 8.73053 13.3521 9.06953C13.0131 9.40853 13.0131 9.97033 13.3521 10.3093L15.4165 12.3737L13.3521 14.4381C13.0131 14.7771 13.0131 15.3389 13.3521 15.6779C13.6911 16.0169 14.2529 16.0169 14.592 15.6779L16.6563 13.6135L18.7207 15.6779C19.0597 16.0169 19.6215 16.0169 19.9605 15.6779C20.2995 15.3389 20.2995 14.7771 19.9605 14.4381L17.8961 12.3737L19.9605 10.3093C20.2995 9.97033 20.2995 9.40853 19.9605 9.06953C19.6215 8.73053 19.0597 8.73053 18.7207 9.06953Z" fill="#e0e0e0"/>
<path fill-rule="evenodd" clip-rule="evenodd" d="M4.49988 12C4.49988 9.84302 4.49988 8.76452 5.1096 8.1548C5.71933 7.54508 6.79783 7.54508 8.95483 7.54508H9.49988C9.77595 7.54508 10.0373 7.4533 10.2348 7.28863L12.9601 5.07752C13.4815 4.65048 14.2498 5.02205 14.2498 5.67861V18.3214C14.2498 18.978 13.4815 19.3495 12.9601 18.9225L10.2348 16.7114C10.0373 16.5467 9.77595 16.4549 9.49988 16.4549H8.95483C6.79783 16.4549 5.71933 16.4549 5.1096 15.8452C4.49988 15.2355 4.49988 14.157 4.49988 12Z" fill="#e0e0e0"/>
</svg> 
